<svg width="121" height="20" viewBox="0 0 121 20" fill="none" xmlns="http://www.w3.org/2000/svg">
<g id="Brand Logo">
<g id="Mercer">
<path d="M30.8516 4.32021L24.1459 0.216713C23.6736 -0.0722377 22.9008 -0.0722377 22.4286 0.216713L3.9288 11.5372L14.1661 3.20576L9.28148 0.216713C8.80923 -0.0722377 8.0364 -0.0722377 7.56416 0.216713L0.858345 4.32021C0.386071 4.60922 -0.000330851 5.31936 2.12579e-07 5.89767V14.1011C-0.000330851 14.6807 0.386071 15.3908 0.858345 15.6798L7.56416 19.7833C8.0364 20.0722 8.80923 20.0722 9.28148 19.7833L27.7812 8.46283L17.5439 16.7942L22.4286 19.7833C22.9008 20.0722 23.6736 20.0722 24.1459 19.7833L30.8516 15.6798C31.324 15.3908 31.7103 14.6807 31.7103 14.1018V5.89828C31.7103 5.31936 31.324 4.60922 30.8516 4.32021Z" fill="#002C77"/>
<path d="M38.3862 0.833322V18.7455H41.5007V5.8053L47.6148 15.7048L53.7519 5.78135V18.7455H56.8664V0.833322H53.6172L47.6378 10.4486L41.7274 0.833322H38.3862Z" fill="#002C77"/>
<path fill-rule="evenodd" clip-rule="evenodd" d="M63.102 18.3414C64.1993 18.8927 65.4576 19.1667 66.8703 19.1667C67.7409 19.1667 68.6116 19.0228 69.4756 18.7318C70.3397 18.4407 71.1117 18.0538 71.7885 17.5641V14.7597C70.3758 15.8623 68.8251 16.4102 67.1397 16.4102C65.8157 16.4102 64.7644 16.0917 63.9825 15.4548C63.2006 14.8213 62.7176 13.9344 62.5369 12.8045H72.1039C72.1335 12.4449 72.1565 12.171 72.1729 11.9929C72.186 11.8114 72.1959 11.6265 72.1959 11.4382C72.1959 10.0856 71.9462 8.90767 71.4501 7.90436C70.954 6.89763 70.251 6.11694 69.3409 5.55877C68.4309 5.0006 67.3664 4.71984 66.1475 4.71984C64.8695 4.71984 63.7328 5.03143 62.7406 5.65124C61.7484 6.27441 60.9698 7.12366 60.4047 8.20912C59.8429 9.29459 59.5604 10.5513 59.5604 11.9792C59.5604 13.5338 59.8758 14.8487 60.5066 15.9171C61.1406 16.9854 62.0047 17.7935 63.102 18.3414ZM63.6671 8.10297C64.2683 7.48321 65.0502 7.17158 66.0128 7.17158C66.9163 7.17158 67.6457 7.42838 68.2009 7.93859C68.7561 8.44884 69.1109 9.19189 69.2621 10.1643C69.2916 10.3219 69.3081 10.5033 69.3081 10.7088H62.5369C62.6881 9.59254 63.0659 8.72274 63.6671 8.10297Z" fill="#002C77"/>
<path d="M74.926 5.14444V18.7455H77.9716V12.3799C77.9716 10.9348 78.2673 9.8322 78.8619 9.0686C79.4566 8.30841 80.3173 7.9249 81.4442 7.9249C81.776 7.9249 82.1374 7.95913 82.5284 8.02078C82.9193 8.08243 83.2347 8.15435 83.4746 8.23308V5.19236C83.2807 5.11362 83.0179 5.05198 82.6861 5.00406C82.3542 4.9561 82.0684 4.93214 81.8286 4.93214C80.9415 4.93214 80.1432 5.2095 79.4368 5.75739C78.7305 6.30869 78.2048 7.04488 77.8566 7.97287L77.8336 5.14444H74.926Z" fill="#002C77"/>
<path d="M87.8868 18.2969C88.925 18.8756 90.1438 19.1667 91.5434 19.1667C92.2038 19.1667 92.8247 19.0879 93.4029 18.9338C93.9844 18.7763 94.5134 18.5709 94.9963 18.3209V15.5165C94.3787 15.7972 93.83 16.0061 93.3471 16.1396C92.8674 16.2732 92.3615 16.3383 91.8358 16.3383C90.5414 16.3383 89.5328 15.9513 88.8001 15.174C88.0708 14.3967 87.7061 13.3078 87.7061 11.9107C87.7061 10.5753 88.0708 9.51716 88.8001 8.73988C89.5328 7.96259 90.5052 7.57222 91.7241 7.57222C92.2498 7.57222 92.8017 7.65442 93.3832 7.81875C93.9614 7.98655 94.5002 8.22626 94.9963 8.53785V5.593C94.4838 5.35674 93.9417 5.15472 93.3701 4.98006C92.7984 4.80885 92.1742 4.71984 91.4974 4.71984C90.1438 4.71984 88.9513 5.02802 87.923 5.64097C86.8913 6.25386 86.0864 7.10652 85.5082 8.19885C84.93 9.28777 84.6376 10.565 84.6376 12.0271C84.6376 13.4722 84.9201 14.7323 85.4852 15.8109C86.0503 16.8861 86.8486 17.7148 87.8868 18.2969Z" fill="#002C77"/>
<path fill-rule="evenodd" clip-rule="evenodd" d="M100.365 18.3414C101.462 18.8927 102.717 19.1667 104.133 19.1667C105.004 19.1667 105.874 19.0228 106.738 18.7318C107.602 18.4407 108.374 18.0538 109.051 17.5641V14.7597C107.638 15.8623 106.088 16.4102 104.402 16.4102C103.078 16.4102 102.027 16.0917 101.245 15.4548C100.463 14.8213 99.9802 13.9344 99.7995 12.8045H109.367L109.393 12.4824C109.401 12.3831 109.409 12.2934 109.416 12.2135C109.423 12.1287 109.43 12.055 109.436 11.9929C109.439 11.9408 109.443 11.8884 109.446 11.8358C109.449 11.7904 109.451 11.7448 109.453 11.6991C109.456 11.6129 109.459 11.5259 109.459 11.4382C109.459 10.0856 109.209 8.90767 108.713 7.90436C108.217 6.89763 107.514 6.11694 106.604 5.55877C105.693 5.0006 104.629 4.71984 103.41 4.71984C102.132 4.71984 100.995 5.03143 100.003 5.65124C99.0111 6.27441 98.2324 7.12366 97.6673 8.20912C97.1055 9.29459 96.823 10.5513 96.823 11.9792C96.823 13.5338 97.1384 14.8487 97.7692 15.9171C98.4033 16.9854 99.2673 17.7935 100.365 18.3414ZM100.93 8.10297C101.531 7.48321 102.313 7.17158 103.275 7.17158C104.179 7.17158 104.908 7.42838 105.464 7.93859C106.019 8.44884 106.374 9.19189 106.525 10.1643C106.554 10.3219 106.571 10.5033 106.571 10.7088H99.7995C99.9507 9.59254 100.328 8.72274 100.93 8.10297Z" fill="#002C77"/>
<path d="M112.448 5.14444V18.7455H115.494V12.3799C115.494 10.9348 115.789 9.8322 116.384 9.0686C116.979 8.30841 117.839 7.9249 118.97 7.9249C119.298 7.9249 119.66 7.95913 120.051 8.02078C120.441 8.08243 120.757 8.15435 121 8.23308V5.19236C120.803 5.11362 120.54 5.05198 120.208 5.00406C119.876 4.9561 119.591 4.93214 119.351 4.93214C118.464 4.93214 117.665 5.2095 116.959 5.75739C116.253 6.30869 115.727 7.04488 115.382 7.97287L115.359 5.14444H112.448Z" fill="#002C77"/>
</g>
</g>
</svg>
