<svg width="42" height="42" viewBox="0 0 42 42" fill="none" xmlns="http://www.w3.org/2000/svg">
<g id="Linkedin / Standard">
<circle id="Oval" cx="21" cy="21" r="20" stroke="white" stroke-opacity="0.3"/>
<path id="Shape" fill-rule="evenodd" clip-rule="evenodd" d="M14.1803 16.3739C12.9733 16.3702 11.9976 15.3895 12 14.1825C12.0025 12.9756 12.9822 11.9988 14.1892 12C15.3961 12.0012 16.3739 12.98 16.3739 14.187C16.3742 14.7682 16.1429 15.3256 15.7313 15.736C15.3196 16.1464 14.7615 16.3759 14.1803 16.3739ZM16.0607 29.9648H12.3008V18.0143H16.0607V29.9648ZM26.319 29.9648H30.0023L30.0014 23.4039C30.0014 20.2013 29.2966 17.7019 25.5367 17.7019C24.0912 17.6519 22.7359 18.4028 22.0117 19.6548H21.9334V18.0143H18.4876V30.0431H22.1675V24.1062C22.1675 22.5449 22.4033 21.0603 24.3611 21.0603C26.319 21.0603 26.319 22.779 26.319 24.1845V29.9648Z" fill="#BFBFBF"/>
</g>
</svg>
