<svg width="28" height="28" viewBox="0 0 28 28" fill="none" xmlns="http://www.w3.org/2000/svg">
<g id="Capa_1">
<g id="Group">
<path id="Vector" d="M22.3467 20.6105L22.3466 20.6106L14.7085 27.6726C14.5086 27.8575 14.2544 27.95 14 27.95C13.7456 27.95 13.4914 27.8575 13.2915 27.6726L5.6534 20.6106C5.64624 20.604 5.63918 20.5973 5.63227 20.5906C3.30187 18.3123 2.01875 15.2727 2.01875 12.0312C2.01875 5.40865 7.37832 0.05 14 0.05C20.6226 0.05 25.9813 5.40957 25.9813 12.0312C25.9813 15.2727 24.6981 18.3123 22.3677 20.5906C22.3607 20.5974 22.3538 20.604 22.3467 20.6105ZM20.9181 19.0885L20.9181 19.0885L20.9191 19.0875C22.8373 17.2067 23.8937 14.7012 23.8937 12.0312C23.8937 6.57579 19.4555 2.1375 14 2.1375C8.54454 2.1375 4.10625 6.57579 4.10625 12.0312C4.10625 14.7012 5.16265 17.2067 7.08088 19.0875L7.08194 19.0885L13.9661 25.4533L14 25.4847L14.0339 25.4533L20.9181 19.0885Z" fill="#0B41AD" stroke="white" stroke-width="0.1"/>
<path id="Vector_2" d="M18.8995 11.05H18.9607L18.9484 10.99C18.6502 9.52621 17.7166 8.29108 16.4497 7.58532L16.3405 7.5245L16.3776 7.64384C16.6819 8.62256 16.8613 9.79273 16.9242 11.0026L16.9267 11.05H16.9742H18.8995ZM13.0287 12.95H12.9757L12.9788 13.0029C13.0427 14.0912 13.2053 14.9697 13.393 15.6283C13.5802 16.2855 13.7934 16.7276 13.9607 16.9402L14 16.9901L14.0393 16.9402C14.2066 16.7276 14.4198 16.2855 14.607 15.6283C14.7947 14.9697 14.9573 14.0912 15.0212 13.0029L15.0243 12.95H14.9712H13.0287ZM12.9788 10.9971L12.9757 11.05H13.0287H14.9712H15.0243L15.0212 10.9971C14.9573 9.90879 14.7947 9.03031 14.607 8.37166C14.4198 7.71452 14.2066 7.27235 14.0393 7.05982L14 7.00992L13.9607 7.05982C13.7934 7.27235 13.5802 7.71452 13.393 8.37166C13.2053 9.03031 13.0427 9.90879 12.9788 10.9971ZM11.6224 7.64384L11.6595 7.5245L11.5503 7.58532C10.2834 8.29108 9.34984 9.52621 9.05156 10.99L9.03933 11.05H9.10055H11.0258H11.0733L11.0758 11.0026C11.1387 9.79273 11.3182 8.62256 11.6224 7.64384ZM9.10055 12.95H9.03933L9.05156 13.01C9.34984 14.4738 10.2834 15.7089 11.5503 16.4147L11.6595 16.4755L11.6224 16.3562C11.3181 15.3774 11.1387 14.2073 11.0758 12.9974L11.0733 12.95H11.0258H9.10055ZM16.3776 16.3562L16.3405 16.4755L16.4497 16.4147C17.7166 15.7089 18.6502 14.4738 18.9484 13.01L18.9607 12.95H18.8995H16.9742H16.9267L16.9242 12.9974C16.8613 14.2073 16.6818 15.3774 16.3776 16.3562ZM7.05 12C7.05 8.16781 10.1678 5.05 14 5.05C17.8322 5.05 20.95 8.16781 20.95 12C20.95 15.8322 17.8322 18.95 14 18.95C10.1678 18.95 7.05 15.8322 7.05 12Z" fill="#0B41AD" stroke="white" stroke-width="0.1"/>
</g>
</g>
</svg>
