<svg width="18" height="18" viewBox="0 0 18 18" fill="none" xmlns="http://www.w3.org/2000/svg">
<g id="Frame" clip-path="url(#clip0_59_3768)">
<g id="01 align center">
<path id="Vector" d="M2.25 1.5H4.5V0H6V1.5H12V0H13.5V1.5H15.75C16.3467 1.5 16.919 1.73705 17.341 2.15901C17.7629 2.58097 18 3.15326 18 3.75V18H0V3.75C0 3.15326 0.237053 2.58097 0.65901 2.15901C1.08097 1.73705 1.65326 1.5 2.25 1.5ZM16.5 3.75C16.5 3.55109 16.421 3.36032 16.2803 3.21967C16.1397 3.07902 15.9489 3 15.75 3H2.25C2.05109 3 1.86032 3.07902 1.71967 3.21967C1.57902 3.36032 1.5 3.55109 1.5 3.75V6H16.5V3.75ZM16.5 16.5V7.5H1.5V16.5H16.5Z" fill="#002C77"/>
<path id="Vector_2" d="M5.25 9.75H6.75V11.25H5.25V9.75Z" fill="#002C77"/>
<path id="Vector_3" d="M8.24963 9.75021H9.74963V11.2502H8.24963V9.75021Z" fill="#002C77"/>
<path id="Vector_4" d="M11.2504 9.75021H12.7504V11.2502H11.2504V9.75021Z" fill="#002C77"/>
<path id="Vector_5" d="M5.25 12.75H6.75V14.25H5.25V12.75Z" fill="#002C77"/>
<path id="Vector_6" d="M8.24963 12.7498H9.74963V14.2498H8.24963V12.7498Z" fill="#002C77"/>
<path id="Vector_7" d="M11.2504 12.7498H12.7504V14.2498H11.2504V12.7498Z" fill="#002C77"/>
</g>
</g>
<defs>
<clipPath id="clip0_59_3768">
<rect width="18" height="18" fill="white" transform="matrix(-1 0 0 1 18 0)"/>
</clipPath>
</defs>
</svg>
