<svg width="28" height="28" viewBox="0 0 28 28" fill="none" xmlns="http://www.w3.org/2000/svg">
<g id="Capa_1" clip-path="url(#clip0_59_3826)">
<g id="Group">
<path id="Vector" d="M10.8459 7.87212L10.8812 7.83677L10.8459 7.87213C11.2535 8.27971 11.2535 8.94056 10.8459 9.34819L9.29908 10.895C9.08315 11.111 8.96408 11.3984 8.96408 11.7038C8.96408 12.0092 9.08315 12.2965 9.29908 12.5125L9.33444 12.4772L9.29908 12.5125L15.4863 18.6997C15.9323 19.1457 16.6578 19.1457 17.1038 18.6997L18.6506 17.1529C19.0582 16.7453 19.719 16.7453 20.1267 17.1529L24.767 21.7933L24.8024 21.758L24.767 21.7933C24.9628 21.989 25.0727 22.2546 25.0727 22.5314C25.0727 22.8082 24.9628 23.0737 24.767 23.2694L24.8024 23.3047L24.767 23.2694L21.6734 26.363C20.6499 27.3865 19.2892 27.9501 17.8418 27.9501C16.3943 27.9501 15.0337 27.3866 14.0102 26.363L1.63578 13.9885C-0.476964 11.8758 -0.476964 8.43803 1.63577 6.32529L4.72939 3.23173L4.7294 3.23172C5.13697 2.82404 5.79782 2.82408 6.20546 3.23173L10.8459 7.87212ZM5.50284 5.48124L5.46748 5.44589L5.43213 5.48124L3.1119 7.80141C1.81301 9.1003 1.81301 11.2136 3.1119 12.5125L15.4863 24.8869C16.7851 26.1858 18.8985 26.1858 20.1974 24.8869L22.5176 22.5667L22.5529 22.5314L22.5176 22.496L19.424 19.4024L19.3886 19.3671L19.3533 19.4024L18.5799 20.1758C17.95 20.8056 17.1225 21.1206 16.295 21.1207C15.4674 21.1208 14.6401 20.8058 14.0102 20.1758L7.82301 13.9886C7.21261 13.3783 6.87658 12.5669 6.87658 11.7038C6.87658 10.8406 7.21261 10.0293 7.82301 9.41891L8.5964 8.64551L8.63176 8.61016L8.5964 8.5748L5.50284 5.48124Z" fill="#0B41AD" stroke="white" stroke-width="0.1"/>
<path id="Vector_2" d="M19.1988 5.46875C19.1988 6.0452 18.7315 6.5125 18.155 6.5125C17.5786 6.5125 17.1113 6.0452 17.1113 5.46875C17.1113 4.8923 17.5786 4.425 18.155 4.425C18.7315 4.425 19.1988 4.8923 19.1988 5.46875Z" fill="#0B41AD" stroke="white" stroke-width="0.1"/>
<path id="Vector_3" d="M23.5738 5.46875C23.5738 6.0452 23.1065 6.5125 22.53 6.5125C21.9536 6.5125 21.4863 6.0452 21.4863 5.46875C21.4863 4.8923 21.9536 4.425 22.53 4.425C23.1065 4.425 23.5738 4.8923 23.5738 5.46875Z" fill="#0B41AD" stroke="white" stroke-width="0.1"/>
<path id="Vector_4" d="M17.1113 10.7868V10.8276V13.125C17.1113 13.5203 17.3346 13.8817 17.6883 14.0586L17.1113 10.7868ZM17.1113 10.7868L17.0713 10.7786M17.1113 10.7868L17.0713 10.7786M17.0713 10.7786C14.601 10.2751 12.7363 8.08544 12.7363 5.46875C12.7363 2.4809 15.1672 0.05 18.155 0.05H22.53C25.5179 0.05 27.9488 2.4809 27.9488 5.46875C27.9488 8.32929 25.7207 10.6794 22.9088 10.8744L22.8941 10.8754M17.0713 10.7786L22.8941 10.8754M22.8941 10.8754L22.8822 10.8843M22.8941 10.8754L22.8822 10.8843M22.8822 10.8843L18.7813 13.96C18.5972 14.0981 18.3767 14.1687 18.1549 14.1687C17.9958 14.1687 17.836 14.1324 17.6883 14.0586L22.8822 10.8843ZM19.1988 10.9375V11.0375L19.2788 10.9775L21.9038 9.00875C22.0845 8.87327 22.3042 8.8 22.53 8.8C24.3669 8.8 25.8613 7.30565 25.8613 5.46875C25.8613 3.63185 24.3669 2.1375 22.53 2.1375H18.155C16.3181 2.1375 14.8238 3.63185 14.8238 5.46875C14.8238 7.30565 16.3181 8.8 18.155 8.8C18.7315 8.8 19.1988 9.26729 19.1988 9.84375V10.9375Z" fill="#0B41AD" stroke="white" stroke-width="0.1"/>
</g>
</g>
<defs>
<clipPath id="clip0_59_3826">
<rect width="28" height="28" fill="white"/>
</clipPath>
</defs>
</svg>
