<svg width="24" height="24" viewBox="0 0 24 24" fill="none" xmlns="http://www.w3.org/2000/svg">
<g id="Capa_1">
<path id="Vector" d="M17.879 8.09058C17.6058 8.08401 17.3401 8.12126 17.0909 8.19912V4.24948C17.0909 3.1973 16.1394 2.31821 14.9699 2.28985C14.6663 2.28258 14.3709 2.32955 14.0979 2.42636C13.8413 1.62602 13.0252 1.0242 12.0608 1.00078C11.4658 0.986003 10.9043 1.18057 10.4786 1.54769C10.1942 1.79291 9.9951 2.09387 9.89421 2.42357C9.62347 2.32865 9.33188 2.28228 9.03011 2.28985C7.86056 2.31821 6.90909 3.1973 6.90909 4.24948V4.97647C6.65998 4.89861 6.39452 4.86122 6.12102 4.86793C4.95147 4.89633 4 5.77543 4 6.8276V13.9766C4 15.8042 4.77251 17.5214 6.18182 18.8422V23H16.3636V19.275C17.3977 18.6773 18.268 17.8719 18.8962 16.9274C19.6183 15.8419 20 14.5986 20 13.332V10.0503C20 8.99808 19.0485 8.11898 17.879 8.09058ZM18.5455 13.332C18.5455 15.3964 17.2912 17.3219 15.2722 18.357L14.9091 18.5431V21.7109H7.63636V18.3081L7.41828 18.1186C6.15195 17.0182 5.45455 15.5472 5.45455 13.9766V6.8276C5.45455 6.46701 5.77139 6.16597 6.16087 6.15652C6.35884 6.15196 6.54696 6.21646 6.68887 6.33879C6.83088 6.46121 6.90909 6.62531 6.90909 6.80079V11.5274H8.36364V4.24948C8.36364 3.88888 8.68048 3.58785 9.06996 3.57839C9.26793 3.57388 9.45605 3.63833 9.59796 3.76067C9.73997 3.88308 9.81818 4.04718 9.81818 4.22267V10.2383H11.2727V2.9336C11.2727 2.75812 11.3509 2.59402 11.4929 2.4716C11.6348 2.34927 11.8214 2.2846 12.0209 2.28937C12.4104 2.29878 12.7273 2.59982 12.7273 2.96042V10.8828H14.1818V4.22267C14.1818 4.04718 14.26 3.88308 14.402 3.76067C14.5439 3.63833 14.7308 3.57375 14.93 3.57844C15.3195 3.58785 15.6364 3.88888 15.6364 4.24948V12.6558C13.5978 12.9631 12.0409 14.5397 12.0409 16.4325H13.4954C13.4954 15.0309 14.7821 13.8906 16.3636 13.8906H17.0909V10.0234C17.0909 9.84796 17.1691 9.68386 17.3111 9.56144C17.453 9.43911 17.6401 9.37475 17.8391 9.37917C18.2286 9.38862 18.5455 9.68966 18.5455 10.0503V13.332Z" fill="white"/>
</g>
</svg>
