<svg width="42" height="42" viewBox="0 0 42 42" fill="none" xmlns="http://www.w3.org/2000/svg">
<g id="Instagram / Standard">
<circle id="Oval Copy" cx="21" cy="21" r="20" stroke="white" stroke-opacity="0.3"/>
<path id="Oval 2" fill-rule="evenodd" clip-rule="evenodd" d="M16.7464 10.7486C17.8471 10.6985 18.1984 10.6868 20.9986 10.6868C23.7988 10.6868 24.1501 10.6985 25.2522 10.7473C26.8581 10.7182 28.412 11.3169 29.5834 12.4158C30.6822 13.5873 31.2808 15.1412 31.252 16.7471C31.3022 17.8478 31.3138 18.1991 31.3138 20.9993C31.3138 23.7995 31.3022 24.1515 31.252 25.2515C31.281 26.8574 30.6824 28.4113 29.5834 29.5827C28.4119 30.6815 26.8581 31.2801 25.2522 31.2513C24.1515 31.3015 23.8002 31.3131 21 31.3131C18.1998 31.3131 17.8478 31.3015 16.7478 31.2513C15.1418 31.2803 13.5879 30.6817 12.4165 29.5827C11.3178 28.4112 10.7192 26.8574 10.748 25.2515C10.6978 24.1508 10.6861 23.7995 10.6861 20.9993C10.6861 18.1991 10.6978 17.8478 10.7466 16.7485C10.7176 15.1425 11.3162 13.5886 12.4152 12.4172C13.5867 11.3184 15.1405 10.7198 16.7464 10.7486ZM25.1655 12.6028C24.0779 12.5533 23.7486 12.543 20.9986 12.543C18.2486 12.543 17.9193 12.5554 16.8317 12.6049C15.6907 12.5655 14.5788 12.9693 13.729 13.7317C12.9671 14.581 12.5633 15.6921 12.6022 16.8323C12.5527 17.92 12.5423 18.2458 12.5423 20.9993C12.5423 23.7527 12.5547 24.0786 12.6063 25.1662C12.5674 26.3065 12.9711 27.4176 13.7331 28.2668C14.5824 29.0287 15.6935 29.4325 16.8337 29.3936C17.9213 29.4431 18.2472 29.4535 21.0007 29.4535C23.7541 29.4535 24.08 29.4431 25.1676 29.3936C26.3079 29.4326 27.419 29.0288 28.2682 28.2668C29.0301 27.4176 29.4339 26.3065 29.395 25.1662C29.4445 24.0786 29.4548 23.7493 29.4548 20.9993C29.4548 18.2493 29.4425 17.92 29.393 16.8303C29.4318 15.69 29.028 14.5789 28.2662 13.7296C27.4169 12.9678 26.3058 12.564 25.1655 12.6028ZM27.7409 15.4945C27.7409 16.1779 27.1869 16.732 26.5034 16.732C25.82 16.732 25.2659 16.1779 25.2659 15.4945C25.2659 14.811 25.82 14.257 26.5034 14.257C27.1869 14.257 27.7409 14.811 27.7409 15.4945ZM20.9986 15.7055C18.0749 15.7055 15.7048 18.0756 15.7048 20.9993C15.7048 23.9229 18.0749 26.293 20.9986 26.293C23.9223 26.293 26.2923 23.9229 26.2923 20.9993C26.2923 18.0756 23.9223 15.7055 20.9986 15.7055ZM20.9986 24.4368C19.1001 24.4368 17.5611 22.8977 17.5611 20.9993C17.5611 19.1008 19.1001 17.5618 20.9986 17.5618C22.8971 17.5618 24.4361 19.1008 24.4361 20.9993C24.4361 21.9109 24.0739 22.7853 23.4293 23.4299C22.7846 24.0746 21.9103 24.4368 20.9986 24.4368Z" fill="#BFBFBF"/>
</g>
</svg>
