<svg width="198" height="32" viewBox="0 0 198 32" fill="none" xmlns="http://www.w3.org/2000/svg">
  <path d="M50.3145 6.91234L39.3784 0.346741C38.6082 -0.11558 37.3478 -0.11558 36.5777 0.346741L6.4073 18.4595L23.1028 5.12922L15.1367 0.346741C14.3666 -0.11558 13.1062 -0.11558 12.336 0.346741L1.39984 6.91234C0.629625 7.37474 -0.000539569 8.51098 3.46685e-07 9.43627V22.5618C-0.000539569 23.4891 0.629625 24.6253 1.39984 25.0877L12.336 31.6533C13.1062 32.1156 14.3666 32.1156 15.1367 31.6533L45.3071 13.5405L28.6116 26.8708L36.5777 31.6533C37.3478 32.1156 38.6082 32.1156 39.3784 31.6533L50.3145 25.0877C51.0848 24.6253 51.7149 23.4891 51.7149 22.5628V9.43725C51.7149 8.51098 51.0848 7.37474 50.3145 6.91234Z" fill="white"/>
  <path d="M62.6023 1.33331V29.9928H67.6816V9.28848L77.6528 25.1276L87.6614 9.25015V29.9928H92.7408V1.33331H87.4418L77.6903 16.7177L68.0513 1.33331H62.6023Z" fill="white"/>
  <path fill-rule="evenodd" clip-rule="evenodd" d="M102.91 29.3463C104.7 30.2284 106.752 30.6667 109.056 30.6667C110.476 30.6667 111.895 30.4365 113.305 29.9709C114.714 29.5051 115.973 28.8861 117.077 28.1026V23.6155C114.773 25.3797 112.244 26.2563 109.495 26.2563C107.336 26.2563 105.621 25.7468 104.346 24.7277C103.071 23.7141 102.283 22.2951 101.989 20.4871H117.591C117.639 19.9119 117.677 19.4736 117.703 19.1886C117.725 18.8983 117.741 18.6024 117.741 18.3011C117.741 16.137 117.334 14.2523 116.525 12.647C115.716 11.0362 114.569 9.7871 113.085 8.89403C111.601 8.00097 109.865 7.55175 107.877 7.55175C105.793 7.55175 103.939 8.05028 102.321 9.04198C100.703 10.0391 99.4328 11.3979 98.5113 13.1346C97.5951 14.8713 97.1343 16.8821 97.1343 19.1668C97.1343 21.6541 97.6487 23.758 98.6774 25.4673C99.7115 27.1767 101.121 28.4697 102.91 29.3463ZM103.832 12.9648C104.812 11.9731 106.087 11.4745 107.657 11.4745C109.131 11.4745 110.32 11.8854 111.226 12.7017C112.131 13.5181 112.71 14.707 112.956 16.2629C113.005 16.515 113.031 16.8053 113.031 17.1341H101.989C102.235 15.3481 102.851 13.9564 103.832 12.9648Z" fill="white"/>
  <path d="M122.193 8.23111V29.9928H127.16V19.8078C127.16 17.4957 127.642 15.7315 128.612 14.5098C129.582 13.2935 130.986 12.6798 132.824 12.6798C133.365 12.6798 133.954 12.7346 134.592 12.8332C135.229 12.9319 135.744 13.047 136.135 13.1729V8.30777C135.819 8.18179 135.39 8.08316 134.849 8.0065C134.308 7.92976 133.842 7.89143 133.45 7.89143C132.004 7.89143 130.702 8.3352 129.55 9.21182C128.398 10.0939 127.541 11.2718 126.973 12.7566L126.935 8.23111H122.193Z" fill="white"/>
  <path d="M143.331 29.2751C145.024 30.201 147.011 30.6667 149.294 30.6667C150.371 30.6667 151.384 30.5407 152.327 30.2941C153.275 30.0421 154.138 29.7134 154.925 29.3134V24.8263C153.918 25.2756 153.023 25.6098 152.235 25.8234C151.453 26.0371 150.628 26.1412 149.771 26.1412C147.66 26.1412 146.015 25.5221 144.82 24.2784C143.631 23.0348 143.036 21.2925 143.036 19.0571C143.036 16.9204 143.631 15.2275 144.82 13.9838C146.015 12.7401 147.601 12.1156 149.589 12.1156C150.446 12.1156 151.346 12.2471 152.294 12.51C153.237 12.7785 154.116 13.162 154.925 13.6606V8.9488C154.089 8.57079 153.205 8.24755 152.273 7.96809C151.341 7.69416 150.323 7.55175 149.219 7.55175C147.011 7.55175 145.067 8.04483 143.389 9.02554C141.707 10.0062 140.394 11.3704 139.451 13.1182C138.508 14.8604 138.032 16.904 138.032 19.2434C138.032 21.5555 138.492 23.5717 139.414 25.2975C140.335 27.0178 141.637 28.3437 143.331 29.2751Z" fill="white"/>
  <path fill-rule="evenodd" clip-rule="evenodd" d="M163.68 29.3463C165.47 30.2284 167.516 30.6667 169.826 30.6667C171.245 30.6667 172.665 30.4365 174.074 29.9709C175.484 29.5051 176.743 28.8861 177.846 28.1026V23.6155C175.543 25.3797 173.014 26.2563 170.265 26.2563C168.106 26.2563 166.391 25.7468 165.116 24.7277C163.841 23.7141 163.053 22.2951 162.758 20.4871H178.361L178.404 19.9718C178.418 19.813 178.43 19.6694 178.441 19.5417C178.453 19.4058 178.464 19.2879 178.473 19.1886C178.479 19.1053 178.485 19.0215 178.49 18.9373C178.495 18.8647 178.498 18.7918 178.501 18.7185C178.507 18.5806 178.511 18.4414 178.511 18.3011C178.511 16.137 178.104 14.2523 177.295 12.647C176.486 11.0362 175.339 9.7871 173.855 8.89403C172.371 8.00097 170.635 7.55175 168.647 7.55175C166.563 7.55175 164.709 8.05028 163.091 9.04198C161.473 10.0391 160.203 11.3979 159.281 13.1346C158.365 14.8713 157.904 16.8821 157.904 19.1668C157.904 21.6541 158.419 23.758 159.447 25.4673C160.481 27.1767 161.89 28.4697 163.68 29.3463ZM164.602 12.9648C165.582 11.9731 166.857 11.4745 168.427 11.4745C169.901 11.4745 171.09 11.8854 171.996 12.7017C172.901 13.5181 173.48 14.707 173.726 16.2629C173.774 16.515 173.801 16.8053 173.801 17.1341H162.758C163.005 15.3481 163.621 13.9564 164.602 12.9648Z" fill="white"/>
  <path d="M183.387 8.23111V29.9928H188.353V19.8078C188.353 17.4957 188.836 15.7315 189.805 14.5098C190.775 13.2935 192.179 12.6798 194.022 12.6798C194.558 12.6798 195.147 12.7346 195.785 12.8332C196.422 12.9319 196.937 13.047 197.333 13.1729V8.30777C197.012 8.18179 196.583 8.08316 196.042 8.0065C195.501 7.92976 195.035 7.89143 194.644 7.89143C193.197 7.89143 191.895 8.3352 190.743 9.21182C189.591 10.0939 188.734 11.2718 188.171 12.7566L188.134 8.23111H183.387Z" fill="white"/>
</svg>
