<svg width="48" height="48" viewBox="0 0 48 48" fill="none" xmlns="http://www.w3.org/2000/svg">
<g id="icon">
<path id="Vector" d="M24.4031 0.801798L24.4031 0.801784C24.1536 0.65782 23.8463 0.65782 23.5969 0.801784L23.5968 0.801798L4.1113 12.0518C3.8618 12.1958 3.70815 12.462 3.70815 12.75V35.25C3.70815 35.5381 3.86178 35.8042 4.11128 35.9482C4.11129 35.9482 4.1113 35.9482 4.1113 35.9482L23.5968 47.1982L23.6718 47.0683L23.5969 47.1982C23.7216 47.2702 23.8608 47.3063 24 47.3063C24.1391 47.3063 24.2784 47.2702 24.4031 47.1982L24.3281 47.0683L24.4031 47.1982L43.8887 35.9482C44.1381 35.8043 44.2918 35.5381 44.2918 35.25V12.75C44.2918 12.462 44.1381 12.1958 43.8887 12.0518L24.4031 0.801798ZM10.7407 26.5481V26.6345L10.8154 26.6779L16.4767 29.962C16.4767 29.9621 16.4768 29.9622 16.4768 29.9622L16.4779 29.9629L16.4781 29.963L16.4786 29.9633L16.4787 29.9633L16.4788 29.9634L16.4796 29.9639L16.4799 29.9641L16.4871 29.9682L16.5136 29.9835L16.5605 30.0106L16.5641 30.0127L16.5644 30.0128L16.5644 30.0128C16.7152 30.0999 16.9613 30.2421 17.1697 30.3626L17.4373 30.5174L17.5187 30.5645L17.5409 30.5773L17.5467 30.5807L17.5481 30.5815L17.5485 30.5818L17.5486 30.5818L17.5486 30.5818L17.6237 30.452L17.5486 30.5818L17.7737 30.7121V30.452V30.4509V30.4499V30.4489V30.4479V30.4469V30.4459V30.4449V30.4439V30.4429V30.4419V30.4409V30.44V30.439V30.438V30.4371V30.4361V30.4352V30.4343V30.4334V30.4324V30.4315V30.4306V30.4297V30.4288V30.4279V30.4271V30.4262V30.4253V30.4245V30.4236V30.4227V30.4219V30.4211V30.4202V30.4194V30.4186V30.4178V30.4169V30.4161V30.4153V30.4145V30.4138V30.413V30.4122V30.4114V30.4107V30.4099V30.4091V30.4084V30.4076V30.4069V30.4062V30.4054V30.4047V30.404V30.4033V30.4026V30.4018V30.4011V30.4005V30.3998V30.3991V30.3984V30.3977V30.3971V30.3964V30.3957V30.3951V30.3944V30.3938V30.3931V30.3925V30.3919V30.3912V30.3906V30.39V30.3894V30.3888V30.3882V30.3876V30.387V30.3864V30.3858V30.3852V30.3846V30.384V30.3835V30.3829V30.3823V30.3818V30.3812V30.3807V30.3801V30.3796V30.379V30.3785V30.378V30.3775V30.3769V30.3764V30.3759V30.3754V30.3749V30.3744V30.3739V30.3734V30.3729V30.3724V30.3719V30.3714V30.371V30.3705V30.37V30.3695V30.3691V30.3686V30.3682V30.3677V30.3673V30.3668V30.3664V30.3659V30.3655V30.365V30.3646V30.3642V30.3638V30.3633V30.3629V30.3625V30.3621V30.3617V30.3613V30.3609V30.3605V30.3601V30.3597V30.3593V30.3589V30.3585V30.3581V30.3577V30.3573V30.357V30.3566V30.3562V30.3559V30.3555V30.3551V30.3548V30.3544V30.354V30.3537V30.3533V30.353V30.3526V30.3523V30.3519V30.3516V30.3513V30.3509V30.3506V30.3502V30.3499V30.3496V30.3493V30.3489V30.3486V30.3483V30.348V30.3476V30.3473V30.347V30.3467V30.3464V30.3461V30.3458V30.3455V30.3452V30.3449V30.3446V30.3443V30.344V30.3437V30.3434V30.3431V30.3428V30.3425V30.3422V30.3419V30.3416V30.3413V30.341V30.3408V30.3405V30.3402V30.3399V30.3396V30.3393V30.3391V30.3388V30.3385V30.3382V30.338V30.3377V30.3374V30.3371V30.3369V30.3366V30.3363V30.3361V30.3358V30.3355V30.3353V30.335V30.3347V30.3345V30.3342V30.3339V30.3337V30.3334V30.3331V30.3329V30.3326V30.3323V30.3321V30.3318V30.3316V30.3313V30.331V30.3308V30.3305V30.3302V30.33V30.3297V30.3295V30.3292V30.3289V30.3287V30.3284V30.3281V30.3279V30.3276V30.3274V30.3271V30.3268V30.3266V30.3263V30.326V30.3258V30.3255V30.3252V30.325V30.3247V30.3244V30.3242V30.3239V30.3236V30.3234V30.3231V30.3228V30.3225V30.3223V30.322V30.3217V30.3214V30.3212V30.3209V30.3206V30.3203V30.32V30.3198V30.3195V30.3192V30.3189V30.3186V30.3183V30.318V30.3177V30.3175V30.3172V30.3169V30.3166V30.3163V30.316V30.3157V30.3154V30.3151V30.3148V30.3145V30.3141V30.3138V30.3135V30.3132V30.3129V30.3126V30.3123V30.3119V30.3116V30.3113V30.311V30.3106V30.3103V30.31V30.3096V30.3093V30.309V30.3086V30.3083V30.3079V30.3076V30.3072V30.3069V30.3065V30.3062V30.3058V30.3055V30.3051V30.3047V30.3044V30.304V30.3036V30.3032V30.3029V30.3025V30.3021V30.3017V30.3013V30.3009V30.3005V30.3001V30.2997V30.2993V30.2989V30.2985V30.2981V30.2977V30.2973V30.2969V30.2964V30.296V30.2956V30.2951V30.2947V30.2943V30.2938V30.2934V30.2929V30.2925V30.292V30.2916V30.2911V30.2906V30.2902V30.2897V30.2892V30.2888V30.2883V30.2878V30.2873V30.2868V30.2863V30.2858V30.2853V30.2848V30.2843V30.2838V30.2832V30.2827V30.2822V30.2817V30.2811V30.2806V30.28V30.2795V30.2789V30.2784V30.2778V30.2773V30.2767V30.2761V30.2756V30.275V30.2744V30.2738V30.2732V30.2726V30.272V30.2714V30.2708V30.2702V30.2696V30.2689V30.2683V30.2677V30.267V30.2664V30.2657V30.2651V30.2644V30.2638V30.2631V30.2624V30.2617V30.2611V30.2604V30.2597V30.259V30.2583V30.2576V30.2569V30.2562V30.2554V30.2547V30.254V30.2532V30.2525V30.2518V30.251V30.2502V30.2495V30.2487V30.2479V30.2472V30.2464V30.2456V30.2448V30.244V30.2432V30.2424V30.2415V30.2407V30.2399V30.2391V30.2382V30.2374V30.2365V30.2357V30.2348V30.2339V30.233V30.2322V30.2313V30.2304V30.2295V30.2286V30.2277V30.2267V30.2258V30.2249V30.2239V30.223V30.2221V30.2211V30.2201V30.2192V30.2182V30.2172V30.2162V30.2152V30.2142V30.2132V30.2122V30.2112V30.2102V30.2091V30.2081V30.207V30.206V30.2049V30.2039V30.2028V30.2017V30.2006V30.1995V30.1984V30.1973V30.1962V30.1951V30.1939V30.1928V30.1917V30.1905V30.1894V30.1882V30.187V30.1858V30.1846V30.1835V30.1823V30.181V30.1798V30.1786V30.1774V30.1761V30.1749V30.1736V30.1724V30.1711V30.1698V30.1685V30.1673V30.166V30.1646V30.1633V30.162V30.1607V30.1593V30.158V30.1566V30.1553V30.1539V21.3361L23.1937 24.4654V45.1036L5.32065 34.7845V14.1464L10.7407 17.2756V26.185V26.1864V26.1878V26.1891V26.1905V26.1918V26.1932V26.1945V26.1958V26.1971V26.1984V26.1997V26.201V26.2023V26.2036V26.2048V26.2061V26.2073V26.2086V26.2098V26.211V26.2123V26.2135V26.2147V26.2159V26.2171V26.2183V26.2195V26.2206V26.2218V26.223V26.2241V26.2253V26.2264V26.2276V26.2287V26.2298V26.2309V26.232V26.2331V26.2342V26.2353V26.2364V26.2375V26.2386V26.2396V26.2407V26.2417V26.2428V26.2438V26.2449V26.2459V26.2469V26.2479V26.2489V26.2499V26.2509V26.2519V26.2529V26.2539V26.2549V26.2558V26.2568V26.2577V26.2587V26.2596V26.2606V26.2615V26.2624V26.2634V26.2643V26.2652V26.2661V26.267V26.2679V26.2688V26.2697V26.2705V26.2714V26.2723V26.2732V26.274V26.2749V26.2757V26.2766V26.2774V26.2782V26.279V26.2799V26.2807V26.2815V26.2823V26.2831V26.2839V26.2847V26.2855V26.2863V26.287V26.2878V26.2886V26.2893V26.2901V26.2909V26.2916V26.2923V26.2931V26.2938V26.2946V26.2953V26.296V26.2967V26.2974V26.2981V26.2988V26.2995V26.3002V26.3009V26.3016V26.3023V26.303V26.3037V26.3043V26.305V26.3057V26.3063V26.307V26.3076V26.3083V26.3089V26.3096V26.3102V26.3108V26.3115V26.3121V26.3127V26.3133V26.3139V26.3145V26.3152V26.3158V26.3164V26.3169V26.3175V26.3181V26.3187V26.3193V26.3199V26.3205V26.321V26.3216V26.3222V26.3227V26.3233V26.3238V26.3244V26.3249V26.3255V26.326V26.3266V26.3271V26.3276V26.3282V26.3287V26.3292V26.3298V26.3303V26.3308V26.3313V26.3318V26.3323V26.3328V26.3333V26.3338V26.3343V26.3348V26.3353V26.3358V26.3363V26.3368V26.3373V26.3378V26.3383V26.3387V26.3392V26.3397V26.3402V26.3406V26.3411V26.3416V26.342V26.3425V26.3429V26.3434V26.3438V26.3443V26.3447V26.3452V26.3456V26.3461V26.3465V26.347V26.3474V26.3479V26.3483V26.3487V26.3492V26.3496V26.35V26.3504V26.3509V26.3513V26.3517V26.3521V26.3526V26.353V26.3534V26.3538V26.3542V26.3547V26.3551V26.3555V26.3559V26.3563V26.3567V26.3571V26.3575V26.3579V26.3583V26.3587V26.3591V26.3595V26.3599V26.3603V26.3607V26.3611V26.3615V26.3619V26.3623V26.3627V26.3631V26.3635V26.3639V26.3643V26.3647V26.3651V26.3655V26.3659V26.3663V26.3667V26.3671V26.3674V26.3678V26.3682V26.3686V26.369V26.3694V26.3698V26.3702V26.3706V26.371V26.3713V26.3717V26.3721V26.3725V26.3729V26.3733V26.3737V26.3741V26.3745V26.3748V26.3752V26.3756V26.376V26.3764V26.3768V26.3772V26.3776V26.378V26.3784V26.3788V26.3792V26.3796V26.38V26.3804V26.3808V26.3812V26.3816V26.382V26.3824V26.3828V26.3832V26.3836V26.384V26.3844V26.3848V26.3852V26.3856V26.386V26.3864V26.3868V26.3872V26.3876V26.3881V26.3885V26.3889V26.3893V26.3897V26.3902V26.3906V26.391V26.3914V26.3919V26.3923V26.3927V26.3932V26.3936V26.394V26.3945V26.3949V26.3953V26.3958V26.3962V26.3967V26.3971V26.3976V26.398V26.3985V26.3989V26.3994V26.3998V26.4003V26.4008V26.4012V26.4017V26.4022V26.4026V26.4031V26.4036V26.4041V26.4046V26.405V26.4055V26.406V26.4065V26.407V26.4075V26.408V26.4085V26.409V26.4095V26.41V26.4105V26.411V26.4115V26.4121V26.4126V26.4131V26.4136V26.4142V26.4147V26.4152V26.4158V26.4163V26.4169V26.4174V26.418V26.4185V26.4191V26.4196V26.4202V26.4208V26.4213V26.4219V26.4225V26.4231V26.4236V26.4242V26.4248V26.4254V26.426V26.4266V26.4272V26.4278V26.4284V26.4291V26.4297V26.4303V26.4309V26.4315V26.4322V26.4328V26.4335V26.4341V26.4348V26.4354V26.4361V26.4367V26.4374V26.4381V26.4387V26.4394V26.4401V26.4408V26.4415V26.4422V26.4429V26.4436V26.4443V26.445V26.4457V26.4464V26.4471V26.4479V26.4486V26.4493V26.4501V26.4508V26.4516V26.4523V26.4531V26.4538V26.4546V26.4554V26.4562V26.457V26.4577V26.4585V26.4593V26.4601V26.4609V26.4618V26.4626V26.4634V26.4642V26.4651V26.4659V26.4667V26.4676V26.4684V26.4693V26.4702V26.471V26.4719V26.4728V26.4737V26.4746V26.4755V26.4764V26.4773V26.4782V26.4791V26.48V26.481V26.4819V26.4828V26.4838V26.4847V26.4857V26.4867V26.4876V26.4886V26.4896V26.4906V26.4916V26.4926V26.4936V26.4946V26.4956V26.4966V26.4977V26.4987V26.4997V26.5008V26.5018V26.5029V26.504V26.505V26.5061V26.5072V26.5083V26.5094V26.5105V26.5116V26.5127V26.5139V26.515V26.5161V26.5173V26.5184V26.5196V26.5208V26.5219V26.5231V26.5243V26.5255V26.5267V26.5279V26.5291V26.5303V26.5315V26.5328V26.534V26.5353V26.5365V26.5378V26.5391V26.5403V26.5416V26.5429V26.5442V26.5455V26.5468V26.5481ZM41.873 12.75L24 23.0689L18.58 19.9397L36.4531 9.62069L41.873 12.75ZM13.1594 16.8101L31.0325 6.49122L34.8406 8.6898L16.9675 19.0087L13.1594 16.8101ZM12.3532 25.7197V18.2067L16.1612 20.4052V27.9183L12.3532 25.7197ZM24 2.43091L29.42 5.56023L11.547 15.8792L6.1269 12.75L24 2.43091ZM42.6793 34.7846L24.8062 45.1035V24.4654L42.6793 14.1464V34.7846Z" fill="#002C77" stroke="#002C77" stroke-width="0.3"/>
</g>
</svg>
