<svg width="48" height="48" viewBox="0 0 48 48" fill="none" xmlns="http://www.w3.org/2000/svg">
<g id="icon">
<path id="Vector" d="M24.4031 0.801737L24.4031 0.801723C24.1536 0.657759 23.8463 0.657759 23.5969 0.801723L23.5968 0.801737L4.1113 12.0517C3.8618 12.1957 3.70815 12.4619 3.70815 12.75V35.25C3.70815 35.538 3.86178 35.8042 4.11128 35.9482C4.11129 35.9482 4.1113 35.9482 4.1113 35.9482L23.5968 47.1982L23.6718 47.0683L23.5969 47.1982C23.7216 47.2701 23.8608 47.3062 24 47.3062C24.1391 47.3062 24.2784 47.2701 24.4031 47.1982L24.3281 47.0683L24.4031 47.1982L43.8887 35.9482C44.1381 35.8042 44.2918 35.538 44.2918 35.25V12.75C44.2918 12.4619 44.1381 12.1957 43.8887 12.0517L24.4031 0.801737ZM10.7407 26.5481V26.6345L10.8154 26.6778L16.4767 29.9619C16.4767 29.962 16.4768 29.9621 16.4768 29.9622L16.4779 29.9628L16.4781 29.9629L16.4786 29.9632L16.4787 29.9633L16.4788 29.9634L16.4796 29.9638L16.4799 29.964L16.4871 29.9681L16.5136 29.9835L16.5605 30.0105L16.5641 30.0126L16.5644 30.0128L16.5644 30.0128C16.7152 30.0998 16.9613 30.2421 17.1697 30.3626L17.4373 30.5173L17.5187 30.5645L17.5409 30.5773L17.5467 30.5806L17.5481 30.5815L17.5485 30.5817L17.5486 30.5817L17.5486 30.5818L17.6237 30.4519L17.5486 30.5818L17.7737 30.712V30.4519V30.4509V30.4499V30.4488V30.4478V30.4468V30.4458V30.4448V30.4438V30.4428V30.4418V30.4409V30.4399V30.4389V30.438V30.437V30.4361V30.4351V30.4342V30.4333V30.4324V30.4315V30.4306V30.4297V30.4288V30.4279V30.427V30.4261V30.4253V30.4244V30.4235V30.4227V30.4218V30.421V30.4202V30.4193V30.4185V30.4177V30.4169V30.4161V30.4153V30.4145V30.4137V30.4129V30.4121V30.4114V30.4106V30.4098V30.4091V30.4083V30.4076V30.4068V30.4061V30.4054V30.4046V30.4039V30.4032V30.4025V30.4018V30.4011V30.4004V30.3997V30.399V30.3983V30.3977V30.397V30.3963V30.3957V30.395V30.3944V30.3937V30.3931V30.3924V30.3918V30.3912V30.3905V30.3899V30.3893V30.3887V30.3881V30.3875V30.3869V30.3863V30.3857V30.3851V30.3846V30.384V30.3834V30.3828V30.3823V30.3817V30.3812V30.3806V30.3801V30.3795V30.379V30.3785V30.3779V30.3774V30.3769V30.3764V30.3758V30.3753V30.3748V30.3743V30.3738V30.3733V30.3728V30.3723V30.3719V30.3714V30.3709V30.3704V30.3699V30.3695V30.369V30.3686V30.3681V30.3676V30.3672V30.3667V30.3663V30.3659V30.3654V30.365V30.3646V30.3641V30.3637V30.3633V30.3629V30.3624V30.362V30.3616V30.3612V30.3608V30.3604V30.36V30.3596V30.3592V30.3588V30.3584V30.358V30.3577V30.3573V30.3569V30.3565V30.3562V30.3558V30.3554V30.3551V30.3547V30.3543V30.354V30.3536V30.3533V30.3529V30.3526V30.3522V30.3519V30.3515V30.3512V30.3509V30.3505V30.3502V30.3499V30.3495V30.3492V30.3489V30.3485V30.3482V30.3479V30.3476V30.3473V30.347V30.3466V30.3463V30.346V30.3457V30.3454V30.3451V30.3448V30.3445V30.3442V30.3439V30.3436V30.3433V30.343V30.3427V30.3424V30.3421V30.3418V30.3415V30.3413V30.341V30.3407V30.3404V30.3401V30.3398V30.3396V30.3393V30.339V30.3387V30.3385V30.3382V30.3379V30.3376V30.3374V30.3371V30.3368V30.3365V30.3363V30.336V30.3357V30.3355V30.3352V30.3349V30.3347V30.3344V30.3341V30.3339V30.3336V30.3333V30.3331V30.3328V30.3325V30.3323V30.332V30.3318V30.3315V30.3312V30.331V30.3307V30.3304V30.3302V30.3299V30.3297V30.3294V30.3291V30.3289V30.3286V30.3284V30.3281V30.3278V30.3276V30.3273V30.327V30.3268V30.3265V30.3262V30.326V30.3257V30.3254V30.3252V30.3249V30.3246V30.3244V30.3241V30.3238V30.3236V30.3233V30.323V30.3228V30.3225V30.3222V30.3219V30.3217V30.3214V30.3211V30.3208V30.3205V30.3203V30.32V30.3197V30.3194V30.3191V30.3188V30.3186V30.3183V30.318V30.3177V30.3174V30.3171V30.3168V30.3165V30.3162V30.3159V30.3156V30.3153V30.315V30.3147V30.3144V30.3141V30.3138V30.3135V30.3131V30.3128V30.3125V30.3122V30.3119V30.3116V30.3112V30.3109V30.3106V30.3102V30.3099V30.3096V30.3092V30.3089V30.3086V30.3082V30.3079V30.3075V30.3072V30.3068V30.3065V30.3061V30.3058V30.3054V30.305V30.3047V30.3043V30.3039V30.3036V30.3032V30.3028V30.3024V30.302V30.3016V30.3013V30.3009V30.3005V30.3001V30.2997V30.2993V30.2989V30.2985V30.298V30.2976V30.2972V30.2968V30.2964V30.2959V30.2955V30.2951V30.2947V30.2942V30.2938V30.2933V30.2929V30.2924V30.292V30.2915V30.291V30.2906V30.2901V30.2896V30.2892V30.2887V30.2882V30.2877V30.2872V30.2867V30.2862V30.2857V30.2852V30.2847V30.2842V30.2837V30.2832V30.2827V30.2821V30.2816V30.2811V30.2805V30.28V30.2794V30.2789V30.2783V30.2778V30.2772V30.2766V30.2761V30.2755V30.2749V30.2743V30.2737V30.2731V30.2725V30.2719V30.2713V30.2707V30.2701V30.2695V30.2689V30.2682V30.2676V30.267V30.2663V30.2657V30.265V30.2644V30.2637V30.263V30.2624V30.2617V30.261V30.2603V30.2596V30.2589V30.2582V30.2575V30.2568V30.2561V30.2554V30.2546V30.2539V30.2532V30.2524V30.2517V30.2509V30.2502V30.2494V30.2486V30.2479V30.2471V30.2463V30.2455V30.2447V30.2439V30.2431V30.2423V30.2415V30.2407V30.2398V30.239V30.2382V30.2373V30.2365V30.2356V30.2347V30.2339V30.233V30.2321V30.2312V30.2303V30.2294V30.2285V30.2276V30.2267V30.2258V30.2248V30.2239V30.2229V30.222V30.221V30.2201V30.2191V30.2181V30.2171V30.2162V30.2152V30.2142V30.2132V30.2121V30.2111V30.2101V30.2091V30.208V30.207V30.2059V30.2049V30.2038V30.2027V30.2016V30.2006V30.1995V30.1984V30.1972V30.1961V30.195V30.1939V30.1927V30.1916V30.1905V30.1893V30.1881V30.187V30.1858V30.1846V30.1834V30.1822V30.181V30.1798V30.1785V30.1773V30.1761V30.1748V30.1736V30.1723V30.171V30.1698V30.1685V30.1672V30.1659V30.1646V30.1633V30.1619V30.1606V30.1593V30.1579V30.1566V30.1552V30.1538V21.3361L23.1937 24.4653V45.1035L5.32065 34.7844V14.1463L10.7407 17.2755V26.185V26.1864V26.1877V26.1891V26.1904V26.1918V26.1931V26.1944V26.1957V26.197V26.1984V26.1996V26.2009V26.2022V26.2035V26.2048V26.206V26.2073V26.2085V26.2098V26.211V26.2122V26.2134V26.2146V26.2158V26.217V26.2182V26.2194V26.2206V26.2218V26.2229V26.2241V26.2252V26.2264V26.2275V26.2286V26.2298V26.2309V26.232V26.2331V26.2342V26.2353V26.2364V26.2374V26.2385V26.2396V26.2406V26.2417V26.2427V26.2438V26.2448V26.2458V26.2468V26.2479V26.2489V26.2499V26.2509V26.2519V26.2528V26.2538V26.2548V26.2558V26.2567V26.2577V26.2586V26.2596V26.2605V26.2615V26.2624V26.2633V26.2642V26.2651V26.266V26.2669V26.2678V26.2687V26.2696V26.2705V26.2714V26.2722V26.2731V26.2739V26.2748V26.2756V26.2765V26.2773V26.2782V26.279V26.2798V26.2806V26.2814V26.2822V26.283V26.2838V26.2846V26.2854V26.2862V26.287V26.2878V26.2885V26.2893V26.29V26.2908V26.2915V26.2923V26.293V26.2938V26.2945V26.2952V26.2959V26.2967V26.2974V26.2981V26.2988V26.2995V26.3002V26.3009V26.3016V26.3022V26.3029V26.3036V26.3043V26.3049V26.3056V26.3063V26.3069V26.3076V26.3082V26.3089V26.3095V26.3101V26.3108V26.3114V26.312V26.3126V26.3133V26.3139V26.3145V26.3151V26.3157V26.3163V26.3169V26.3175V26.3181V26.3187V26.3192V26.3198V26.3204V26.321V26.3215V26.3221V26.3227V26.3232V26.3238V26.3243V26.3249V26.3254V26.326V26.3265V26.3271V26.3276V26.3281V26.3286V26.3292V26.3297V26.3302V26.3307V26.3313V26.3318V26.3323V26.3328V26.3333V26.3338V26.3343V26.3348V26.3353V26.3358V26.3363V26.3367V26.3372V26.3377V26.3382V26.3387V26.3391V26.3396V26.3401V26.3406V26.341V26.3415V26.342V26.3424V26.3429V26.3433V26.3438V26.3442V26.3447V26.3451V26.3456V26.346V26.3465V26.3469V26.3474V26.3478V26.3482V26.3487V26.3491V26.3495V26.35V26.3504V26.3508V26.3512V26.3517V26.3521V26.3525V26.3529V26.3533V26.3538V26.3542V26.3546V26.355V26.3554V26.3558V26.3562V26.3566V26.3571V26.3575V26.3579V26.3583V26.3587V26.3591V26.3595V26.3599V26.3603V26.3607V26.3611V26.3615V26.3619V26.3623V26.3627V26.3631V26.3635V26.3639V26.3643V26.3646V26.365V26.3654V26.3658V26.3662V26.3666V26.367V26.3674V26.3678V26.3682V26.3686V26.3689V26.3693V26.3697V26.3701V26.3705V26.3709V26.3713V26.3717V26.3721V26.3724V26.3728V26.3732V26.3736V26.374V26.3744V26.3748V26.3752V26.3756V26.376V26.3764V26.3767V26.3771V26.3775V26.3779V26.3783V26.3787V26.3791V26.3795V26.3799V26.3803V26.3807V26.3811V26.3815V26.3819V26.3823V26.3827V26.3831V26.3835V26.3839V26.3843V26.3847V26.3851V26.3855V26.3859V26.3864V26.3868V26.3872V26.3876V26.388V26.3884V26.3888V26.3893V26.3897V26.3901V26.3905V26.3909V26.3914V26.3918V26.3922V26.3927V26.3931V26.3935V26.394V26.3944V26.3948V26.3953V26.3957V26.3962V26.3966V26.3971V26.3975V26.398V26.3984V26.3989V26.3993V26.3998V26.4002V26.4007V26.4012V26.4016V26.4021V26.4026V26.4031V26.4035V26.404V26.4045V26.405V26.4055V26.4059V26.4064V26.4069V26.4074V26.4079V26.4084V26.4089V26.4094V26.4099V26.4105V26.411V26.4115V26.412V26.4125V26.413V26.4136V26.4141V26.4146V26.4152V26.4157V26.4163V26.4168V26.4173V26.4179V26.4185V26.419V26.4196V26.4201V26.4207V26.4213V26.4218V26.4224V26.423V26.4236V26.4242V26.4248V26.4254V26.426V26.4266V26.4272V26.4278V26.4284V26.429V26.4296V26.4302V26.4309V26.4315V26.4321V26.4328V26.4334V26.434V26.4347V26.4353V26.436V26.4367V26.4373V26.438V26.4387V26.4393V26.44V26.4407V26.4414V26.4421V26.4428V26.4435V26.4442V26.4449V26.4456V26.4463V26.4471V26.4478V26.4485V26.4493V26.45V26.4508V26.4515V26.4523V26.453V26.4538V26.4546V26.4553V26.4561V26.4569V26.4577V26.4585V26.4593V26.4601V26.4609V26.4617V26.4625V26.4633V26.4642V26.465V26.4658V26.4667V26.4675V26.4684V26.4692V26.4701V26.471V26.4719V26.4727V26.4736V26.4745V26.4754V26.4763V26.4772V26.4781V26.4791V26.48V26.4809V26.4818V26.4828V26.4837V26.4847V26.4856V26.4866V26.4876V26.4886V26.4895V26.4905V26.4915V26.4925V26.4935V26.4945V26.4955V26.4966V26.4976V26.4986V26.4997V26.5007V26.5018V26.5028V26.5039V26.505V26.5061V26.5072V26.5082V26.5093V26.5104V26.5116V26.5127V26.5138V26.5149V26.5161V26.5172V26.5184V26.5195V26.5207V26.5219V26.523V26.5242V26.5254V26.5266V26.5278V26.529V26.5303V26.5315V26.5327V26.534V26.5352V26.5365V26.5377V26.539V26.5403V26.5416V26.5428V26.5441V26.5454V26.5468V26.5481ZM41.873 12.75L24 23.0689L18.58 19.9396L36.4531 9.62063L41.873 12.75ZM13.1594 16.8101L31.0325 6.49116L34.8406 8.68973L16.9675 19.0087L13.1594 16.8101ZM12.3532 25.7196V18.2066L16.1612 20.4052V27.9182L12.3532 25.7196ZM24 2.43085L29.42 5.56017L11.547 15.8792L6.1269 12.75L24 2.43085ZM42.6793 34.7845L24.8062 45.1034V24.4653L42.6793 14.1464V34.7845Z" fill="white" stroke="white" stroke-width="0.3"/>
</g>
</svg>
