<svg width="42" height="42" viewBox="0 0 42 42" fill="none" xmlns="http://www.w3.org/2000/svg">
<g id="YouTube / Standard">
<circle id="Oval Copy" cx="21" cy="21" r="20" stroke="white" stroke-opacity="0.3"/>
<path id="Vector" d="M30.75 17C30.5 15.375 29.75 14.25 28 14C25.25 13.5 21 13.5 21 13.5C21 13.5 16.75 13.5 14 14C12.25 14.25 11.375 15.375 11.25 17C11 18.625 11 21 11 21C11 21 11 23.375 11.25 25C11.5 26.625 12.25 27.75 14 28C16.75 28.5 21 28.5 21 28.5C21 28.5 25.25 28.5 28 28C29.75 27.625 30.5 26.625 30.75 25C31 23.375 31 21 31 21C31 21 31 18.625 30.75 17ZM18.5 24.75V17.25L24.75 21L18.5 24.75Z" fill="#BFBFBF"/>
</g>
</svg>
